<svg width="244" height="12" viewBox="0 0 244 12" fill="none" xmlns="http://www.w3.org/2000/svg">
<path d="M3.0293 4.28502C2.08214 3.71672 0.853614 4.02385 0.28532 4.97101C-0.282979 5.91817 0.0241542 7.14669 0.971313 7.71499L2.0003 6L3.0293 4.28502ZM22.0003 6L20.9713 4.28502C15.4495 7.59811 8.55113 7.59812 3.0293 4.28502L2.0003 6L0.971313 7.71499C7.75988 11.7881 16.2407 11.7881 23.0293 7.71499L22.0003 6ZM22.0003 6L23.0293 7.71499C28.5511 4.40189 35.4495 4.40189 40.9713 7.71499L42.0003 6L43.0293 4.28501C36.2407 0.211877 27.7599 0.211878 20.9713 4.28502L22.0003 6Z" fill="#6F7979"/>
<path d="M80.9713 7.71499C81.9185 8.28328 83.147 7.97615 83.7153 7.02899C84.2836 6.08183 83.9765 4.85331 83.0293 4.28501L82.0003 6L80.9713 7.71499ZM62.0003 6L63.0293 7.71499C68.5511 4.40189 75.4495 4.40189 80.9713 7.71499L82.0003 6L83.0293 4.28501C76.2407 0.211878 67.7599 0.211878 60.9713 4.28502L62.0003 6ZM62.0003 6L60.9713 4.28502C55.4495 7.59811 48.5511 7.59811 43.0293 4.28501L42.0003 6L40.9713 7.71499C47.7599 11.7881 56.2407 11.7881 63.0293 7.71499L62.0003 6Z" fill="#6F7979"/>
<path d="M120.971 7.71499C121.918 8.28328 123.147 7.97615 123.715 7.02899C124.284 6.08183 123.976 4.85331 123.029 4.28501L122 6L120.971 7.71499ZM102 6L103.029 7.71499C108.551 4.40189 115.449 4.40189 120.971 7.71499L122 6L123.029 4.28501C116.241 0.211878 107.76 0.211878 100.971 4.28502L102 6ZM102 6L100.971 4.28502C95.4495 7.59811 88.5511 7.59811 83.0293 4.28501L82.0003 6L80.9713 7.71499C87.7599 11.7881 96.2407 11.7881 103.029 7.71499L102 6Z" fill="#6F7979"/>
<path d="M160.971 7.71499C161.918 8.28328 163.147 7.97615 163.715 7.02899C164.284 6.08183 163.976 4.85331 163.029 4.28501L162 6L160.971 7.71499ZM142 6L143.029 7.71499C148.551 4.40189 155.449 4.40189 160.971 7.71499L162 6L163.029 4.28501C156.241 0.211878 147.76 0.211878 140.971 4.28502L142 6ZM142 6L140.971 4.28502C135.449 7.59811 128.551 7.59811 123.029 4.28501L122 6L120.971 7.71499C127.76 11.7881 136.241 11.7881 143.029 7.71499L142 6Z" fill="#6F7979"/>
<path d="M200.971 7.71499C201.918 8.28328 203.147 7.97615 203.715 7.02899C204.284 6.08183 203.976 4.85331 203.029 4.28501L202 6L200.971 7.71499ZM182 6L183.029 7.71499C188.551 4.40189 195.449 4.40189 200.971 7.71499L202 6L203.029 4.28501C196.241 0.211878 187.76 0.211878 180.971 4.28502L182 6ZM182 6L180.971 4.28502C175.449 7.59811 168.551 7.59811 163.029 4.28501L162 6L160.971 7.71499C167.76 11.7881 176.241 11.7881 183.029 7.71499L182 6Z" fill="#6F7979"/>
<path d="M240.971 7.71499C241.918 8.28328 243.147 7.97615 243.715 7.02899C244.284 6.08183 243.976 4.85331 243.029 4.28501L242 6L240.971 7.71499ZM222 6L223.029 7.71499C228.551 4.40189 235.449 4.40189 240.971 7.71499L242 6L243.029 4.28501C236.241 0.211878 227.76 0.211878 220.971 4.28502L222 6ZM222 6L220.971 4.28502C215.449 7.59811 208.551 7.59811 203.029 4.28501L202 6L200.971 7.71499C207.76 11.7881 216.241 11.7881 223.029 7.71499L222 6Z" fill="#6F7979"/>
</svg>
